HIERARCHY
ROOT mixamorig:Hips
{
  OFFSET 0.000000 0.000000 0.000000
  CHANNELS 6 Xposition Yposition Zposition Zrotation Xrotation Yrotation
  JOINT mixamorig:Spine
  {
    OFFSET 0.002207 0.035357 0.003705
    CHANNELS 3 Zrotation Xrotation Yrotation
    JOINT mixamorig:Spine1
    {
      OFFSET 0.003005 0.048498 -0.015119
      CHANNELS 3 Zrotation Xrotation Yrotation
      JOINT mixamorig:Spine2
      {
        OFFSET 0.003606 0.058197 -0.018143
        CHANNELS 3 Zrotation Xrotation Yrotation
        JOINT mixamorig:Neck
        {
          OFFSET 0.003998 0.051946 -0.028221
          CHANNELS 3 Zrotation Xrotation Yrotation
          JOINT mixamorig:Head
          {
            OFFSET 0.006706 0.048531 -0.051623
            CHANNELS 3 Zrotation Xrotation Yrotation
            End Site
            {
              OFFSET 0.001676 0.012133 -0.012906
            }
          }
        }
        JOINT mixamorig:LeftShoulder
        {
          OFFSET 0.060861 0.038542 0.018154
          CHANNELS 3 Zrotation Xrotation Yrotation
          JOINT mixamorig:LeftArm
          {
            OFFSET 0.023104 -0.081868 -0.055197
            CHANNELS 3 Zrotation Xrotation Yrotation
            JOINT mixamorig:LeftForeArm
            {
              OFFSET 0.008469 -0.038338 -0.091959
              CHANNELS 3 Zrotation Xrotation Yrotation
              JOINT mixamorig:LeftHand
              {
                OFFSET 0.003988 -0.006813 -0.038551
                CHANNELS 3 Zrotation Xrotation Yrotation
                End Site
                {
                  OFFSET 0.000997 -0.001703 -0.009638
                }
              }
            }
          }
        }
        JOINT mixamorig:RightShoulder
        {
          OFFSET -0.056053 0.039054 -0.042344
          CHANNELS 3 Zrotation Xrotation Yrotation
          JOINT mixamorig:RightArm
          {
            OFFSET -0.011695 -0.075695 -0.071900
            CHANNELS 3 Zrotation Xrotation Yrotation
            JOINT mixamorig:RightForeArm
            {
              OFFSET 0.007981 -0.046526 -0.082476
              CHANNELS 3 Zrotation Xrotation Yrotation
              JOINT mixamorig:RightHand
              {
                OFFSET 0.010919 -0.008150 -0.030326
                CHANNELS 3 Zrotation Xrotation Yrotation
                End Site
                {
                  OFFSET 0.002730 -0.002037 -0.007582
                }
              }
            }
          }
        }
      }
    }
  }
  JOINT mixamorig:LeftUpLeg
  {
    OFFSET 0.034820 -0.013668 0.032821
    CHANNELS 3 Zrotation Xrotation Yrotation
    JOINT mixamorig:LeftLeg
    {
      OFFSET -0.025723 -0.030969 -0.132913
      CHANNELS 3 Zrotation Xrotation Yrotation
      JOINT mixamorig:LeftFoot
      {
        OFFSET -0.011062 -0.117471 -0.034516
        CHANNELS 3 Zrotation Xrotation Yrotation
        JOINT mixamorig:LeftToeBase
        {
          OFFSET -0.003304 -0.035913 -0.052284
          CHANNELS 3 Zrotation Xrotation Yrotation
          End Site
          {
            OFFSET -0.000826 -0.008978 -0.013071
          }
        }
      }
    }
  }
  JOINT mixamorig:RightUpLeg
  {
    OFFSET -0.036416 -0.012614 0.004827
    CHANNELS 3 Zrotation Xrotation Yrotation
    JOINT mixamorig:RightLeg
    {
      OFFSET 0.005070 -0.045724 -0.126799
      CHANNELS 3 Zrotation Xrotation Yrotation
      JOINT mixamorig:RightFoot
      {
        OFFSET 0.009583 -0.117456 -0.017324
        CHANNELS 3 Zrotation Xrotation Yrotation
        JOINT mixamorig:RightToeBase
        {
          OFFSET 0.014966 -0.030832 -0.048485
          CHANNELS 3 Zrotation Xrotation Yrotation
          End Site
          {
            OFFSET 0.003742 -0.007708 -0.012121
          }
        }
      }
    }
  }
}
MOTION
Frames: 7
Frame Time: 0.03333333
0.000000 0.000000 0.000000 3.034349 10.724191 6.865726 0.000000 0.000000 0.000000 0.000000 0.000000 0.000000 0.000000 0.000000 0.000000 -0.317035 2.458315 -6.456833 0.000000 -0.000000 0.000000 1.069994 -19.431282 -13.036016 -5.212643 18.411134 2.156405 -3.431446 11.870313 8.435934 -2.544685 -22.430502 -4.422399 -10.619506 -30.195564 -2.599120 -4.176818 0.036859 7.281506 -1.194769 2.509084 14.893068 16.964435 12.243787 -29.920991 -8.466454 2.013290 2.234388 11.367311 -48.588912 -5.653179 -17.954724 41.783380 36.996479 -1.139782 -8.019890 -29.900836 -10.121435 1.132673 8.964404 -0.859267 -37.742113 -21.371713 -7.254247 22.213627 13.705964 2.636465 2.721033 -8.997359
0.001268 0.004478 0.003304 3.317487 9.924718 7.015514 -0.000000 -0.000000 -0.000000 -0.000000 -0.000000 -0.000000 -0.000000 -0.000000 -0.000000 -0.632398 2.299699 -6.495850 -0.000000 0.000000 -0.000000 0.224882 -18.943875 -13.170263 -4.632442 17.573505 1.814894 -3.565171 11.715062 8.954676 -2.321261 -20.987201 -4.717694 -10.724172 -27.832781 -2.730415 -4.362775 -1.348554 7.838248 -0.572015 4.351535 17.203985 16.427485 9.699296 -32.209160 -8.723615 3.676962 2.081007 10.819286 -48.144929 -5.728541 -17.829800 39.376644 36.357069 0.392905 -7.409089 -29.307953 -9.795114 0.908478 7.672941 0.806751 -37.945474 -19.694635 -6.442933 21.824705 10.670484 0.627180 4.507159 -6.188680
0.002727 0.009927 0.007277 3.527318 9.240735 7.055548 0.000000 0.000000 0.000000 0.000000 0.000000 0.000000 0.000000 0.000000 0.000000 -0.991716 1.477941 -6.348073 -0.000000 -0.000000 0.000000 -0.533827 -18.204594 -13.006719 -3.969690 16.046126 1.414485 -3.209604 11.307043 8.259790 -2.003718 -18.934078 -3.886814 -10.725427 -24.956277 -2.750659 -4.210210 -2.925669 7.609165 -0.251042 5.558166 17.730492 15.361820 8.117073 -32.153949 -8.975822 5.673885 2.001327 10.589012 -47.825957 -5.619872 -16.873328 37.111306 34.566329 1.095921 -6.747345 -28.145863 -9.004074 0.667829 5.542942 3.780744 -37.738147 -16.471700 -5.425850 21.185960 7.289920 -2.463596 5.829463 -3.099769
0.004337 0.016204 0.012085 3.621661 8.640514 6.954590 0.000000 -0.000000 0.000000 0.000000 -0.000000 0.000000 0.000000 -0.000000 0.000000 -1.381046 -0.046897 -6.013642 0.000000 0.000000 0.000000 -1.145016 -17.078774 -12.468546 -3.233830 13.968040 0.960539 -2.351711 10.737082 6.082622 -1.724208 -16.618044 -1.763124 -10.474407 -21.449019 -2.709794 -3.596918 -3.778703 6.558982 -0.269048 5.462668 15.784862 13.430129 7.366533 -28.853839 -9.165676 7.787018 2.047533 11.117694 -46.977461 -5.312833 -14.152720 35.409410 30.983797 -0.536436 -6.273285 -26.272010 -7.745078 -0.593249 2.445238 7.231438 -34.474974 -11.908264 -4.342308 19.345946 3.808786 -5.427414 6.213632 -0.027879
0.006074 0.023187 0.017967 3.718860 7.914770 6.548494 -0.000000 0.000000 0.000000 -0.000000 0.000000 0.000000 -0.000000 0.000000 0.000000 -1.793768 -1.533320 -5.421671 0.000000 0.000000 0.000000 -1.352202 -15.119631 -11.451603 -2.741360 11.673834 0.646040 -1.047496 9.994178 2.313805 -1.643518 -14.710420 1.646149 -10.030621 -17.257977 -2.442815 -2.168564 -3.557969 4.165258 -0.814578 3.469168 11.470842 10.651066 7.568097 -21.833303 -9.159307 8.789317 2.192697 11.702194 -44.376188 -5.065255 -11.145989 33.630429 26.337618 -2.829705 -6.227542 -23.359364 -6.181200 -1.835990 -1.226103 9.985223 -28.216579 -6.812445 -3.916765 16.637948 1.424761 -7.108375 4.819186 1.905368
0.007920 0.030801 0.025103 3.832331 6.909217 5.852676 0.000000 -0.000000 -0.000000 0.000000 -0.000000 -0.000000 0.000000 -0.000000 -0.000000 -2.170372 -2.764449 -4.556352 0.000000 -0.000000 0.000000 -1.330738 -12.387150 -10.031074 -2.405794 9.355222 0.411558 0.318081 8.944362 -1.979274 -1.721231 -13.088918 5.397384 -9.417941 -12.335412 -2.020305 -0.008087 -2.015263 1.166258 -0.899867 0.894429 5.344332 6.366045 6.452345 -11.962415 -8.669378 8.284466 1.878641 10.280460 -37.791530 -5.098695 -9.920013 28.551154 19.539606 -1.328620 -6.483922 -17.058181 -4.706294 -3.409718 -4.754781 10.810189 -18.243693 -2.469200 -3.590635 12.630584 -0.342966 -7.559356 1.870766 2.907910
0.009681 0.038555 0.033042 3.845252 5.770459 4.893222 0.000000 0.000000 0.000000 0.000000 0.000000 0.000000 0.000000 0.000000 0.000000 -2.365063 -3.953333 -3.378249 -0.000000 0.000000 -0.000000 -1.230383 -9.200539 -8.226929 -2.060295 6.997142 0.115875 1.461424 7.325123 -6.044575 -1.882668 -11.270660 8.891565 -8.613434 -7.265718 -1.514434 2.446176 0.483078 -1.571352 0.363453 -1.157876 -1.734054 1.273035 2.712415 -1.026954 -7.485658 6.429676 0.620462 5.753004 -27.203790 -4.373030 -12.655006 19.976957 8.971532 7.640724 -5.955681 -5.703646 -3.518715 -5.058581 -7.322787 9.418446 -6.231113 0.721753 -2.472372 7.438060 -1.371072 -7.617572 -1.744043 2.860144
